<svg width="184" height="77" viewBox="0 0 184 77" fill="none" xmlns="http://www.w3.org/2000/svg">
<g clip-path="url(#clip0_1_3)">
<path d="M9.33388 23.89V10.1428H176.316V0H9.33388H6.24213H0V16.5268V23.89V53.0676H25.6041V44.1922H9.31845V23.89H9.33388Z" fill="#333C4F"/>
<path d="M176.316 0V10.1428V44.1922H158.067V53.0676H184V0H176.316Z" fill="#333C4F"/>
<g filter="url(#filter0_d_1_3)">
<path d="M39.998 38.5667C38.542 38.5667 37.1987 38.3327 35.968 37.8647C34.7373 37.3967 33.6627 36.738 32.744 35.8887C31.8427 35.022 31.1407 34.0167 30.638 32.8727C30.1353 31.7287 29.884 30.472 29.884 29.1027C29.884 27.7334 30.1353 26.4767 30.638 25.3327C31.1407 24.1887 31.8427 23.192 32.744 22.3427C33.6627 21.476 34.7373 20.8087 35.968 20.3407C37.1987 19.8727 38.542 19.6387 39.998 19.6387C41.4713 19.6387 42.8147 19.8727 44.028 20.3407C45.2587 20.8087 46.3247 21.476 47.226 22.3427C48.1273 23.192 48.8293 24.1887 49.332 25.3327C49.852 26.4767 50.112 27.7334 50.112 29.1027C50.112 30.472 49.852 31.7374 49.332 32.8987C48.8293 34.0427 48.1273 35.0394 47.226 35.8887C46.3247 36.738 45.2587 37.3967 44.028 37.8647C42.8147 38.3327 41.4713 38.5667 39.998 38.5667ZM39.998 34.3027C40.6913 34.3027 41.3327 34.1814 41.922 33.9387C42.5287 33.696 43.0487 33.3494 43.482 32.8987C43.9327 32.4307 44.2793 31.876 44.522 31.2347C44.782 30.5934 44.912 29.8827 44.912 29.1027C44.912 28.3054 44.782 27.5947 44.522 26.9707C44.2793 26.3294 43.9327 25.7834 43.482 25.3327C43.0487 24.8647 42.5287 24.5094 41.922 24.2667C41.3327 24.024 40.6913 23.9027 39.998 23.9027C39.3047 23.9027 38.6547 24.024 38.048 24.2667C37.4587 24.5094 36.9387 24.8647 36.488 25.3327C36.0547 25.7834 35.708 26.3294 35.448 26.9707C35.2053 27.5947 35.084 28.3054 35.084 29.1027C35.084 29.8827 35.2053 30.5934 35.448 31.2347C35.708 31.876 36.0547 32.4307 36.488 32.8987C36.9387 33.3494 37.4587 33.696 38.048 33.9387C38.6547 34.1814 39.3047 34.3027 39.998 34.3027ZM52.8083 38.2027V20.0027H57.9563V34.1207H66.6403V38.2027H52.8083ZM68.6774 38.2027V20.0027H77.2834C79.2941 20.0027 81.0621 20.3754 82.5874 21.1207C84.1128 21.866 85.3001 22.9147 86.1494 24.2667C87.0161 25.6187 87.4494 27.2307 87.4494 29.1027C87.4494 30.9574 87.0161 32.5694 86.1494 33.9387C85.3001 35.2907 84.1128 36.3394 82.5874 37.0847C81.0621 37.83 79.2941 38.2027 77.2834 38.2027H68.6774ZM73.8254 34.0947H77.0754C78.1154 34.0947 79.0168 33.904 79.7794 33.5227C80.5594 33.124 81.1661 32.552 81.5994 31.8067C82.0328 31.044 82.2494 30.1427 82.2494 29.1027C82.2494 28.0454 82.0328 27.144 81.5994 26.3987C81.1661 25.6534 80.5594 25.09 79.7794 24.7087C79.0168 24.31 78.1154 24.1107 77.0754 24.1107H73.8254V34.0947ZM98.5559 38.5667C95.8692 38.5667 93.7719 37.83 92.2639 36.3567C90.7559 34.8834 90.0019 32.7947 90.0019 30.0907V20.0027H95.1499V29.9347C95.1499 31.4947 95.4532 32.6127 96.0599 33.2887C96.6839 33.9647 97.5332 34.3027 98.6079 34.3027C99.6826 34.3027 100.523 33.9647 101.13 33.2887C101.737 32.6127 102.04 31.4947 102.04 29.9347V20.0027H107.11V30.0907C107.11 32.7947 106.356 34.8834 104.848 36.3567C103.34 37.83 101.243 38.5667 98.5559 38.5667ZM116.187 38.2027L108.413 20.0027H113.977L120.529 35.7587H117.253L123.961 20.0027H129.057L121.257 38.2027H116.187ZM127.304 38.2027L135.338 20.0027H140.408L148.468 38.2027H143.112L136.82 22.5247H138.848L132.556 38.2027H127.304ZM131.698 34.6667L133.024 30.8707H141.916L143.242 34.6667H131.698ZM149.927 38.2027V20.0027H155.075V38.2027H149.927Z" fill="#363753"/>
</g>
<path d="M48.376 47.4622H50.456V58.6622H48.376V47.4622ZM42.584 58.6622H40.504V47.4622H42.584V58.6622ZM48.536 53.8622H42.408V52.0862H48.536V53.8622ZM55.5051 58.7742C54.6305 58.7742 53.8518 58.5875 53.1691 58.2142C52.4865 57.8302 51.9478 57.3075 51.5531 56.6462C51.1585 55.9848 50.9611 55.2328 50.9611 54.3902C50.9611 53.5368 51.1585 52.7848 51.5531 52.1342C51.9478 51.4728 52.4865 50.9555 53.1691 50.5822C53.8518 50.2088 54.6305 50.0222 55.5051 50.0222C56.3905 50.0222 57.1745 50.2088 57.8571 50.5822C58.5505 50.9555 59.0891 51.4675 59.4731 52.1182C59.8678 52.7688 60.0651 53.5262 60.0651 54.3902C60.0651 55.2328 59.8678 55.9848 59.4731 56.6462C59.0891 57.3075 58.5505 57.8302 57.8571 58.2142C57.1745 58.5875 56.3905 58.7742 55.5051 58.7742ZM55.5051 57.0622C55.9958 57.0622 56.4331 56.9555 56.8171 56.7422C57.2011 56.5288 57.4998 56.2195 57.7131 55.8142C57.9371 55.4088 58.0491 54.9342 58.0491 54.3902C58.0491 53.8355 57.9371 53.3608 57.7131 52.9662C57.4998 52.5608 57.2011 52.2515 56.8171 52.0382C56.4331 51.8248 56.0011 51.7182 55.5211 51.7182C55.0305 51.7182 54.5931 51.8248 54.2091 52.0382C53.8358 52.2515 53.5371 52.5608 53.3131 52.9662C53.0891 53.3608 52.9771 53.8355 52.9771 54.3902C52.9771 54.9342 53.0891 55.4088 53.3131 55.8142C53.5371 56.2195 53.8358 56.5288 54.2091 56.7422C54.5931 56.9555 55.0251 57.0622 55.5051 57.0622ZM60.3776 58.6622V46.7902H62.3776V58.6622H60.3776ZM63.4026 58.6622V50.1182H65.4026V58.6622H63.4026ZM64.4106 48.7102C64.0373 48.7102 63.728 48.5928 63.4826 48.3582C63.248 48.1235 63.1306 47.8408 63.1306 47.5102C63.1306 47.1688 63.248 46.8862 63.4826 46.6622C63.728 46.4275 64.0373 46.3102 64.4106 46.3102C64.784 46.3102 65.088 46.4222 65.3226 46.6462C65.568 46.8595 65.6906 47.1315 65.6906 47.4622C65.6906 47.8142 65.5733 48.1128 65.3386 48.3582C65.104 48.5928 64.7946 48.7102 64.4106 48.7102ZM70.0436 58.7742C69.2223 58.7742 68.481 58.5928 67.8196 58.2302C67.169 57.8568 66.657 57.3448 66.2836 56.6942C65.9103 56.0435 65.7236 55.2755 65.7236 54.3902C65.7236 53.5048 65.9103 52.7368 66.2836 52.0862C66.657 51.4355 67.169 50.9288 67.8196 50.5662C68.481 50.2035 69.2223 50.0222 70.0436 50.0222C70.7583 50.0222 71.3983 50.1822 71.9636 50.5022C72.529 50.8115 72.977 51.2862 73.3076 51.9262C73.6383 52.5662 73.8036 53.3875 73.8036 54.3902C73.8036 55.3822 73.6436 56.2035 73.3236 56.8542C73.0036 57.4942 72.561 57.9742 71.9956 58.2942C71.4303 58.6142 70.7796 58.7742 70.0436 58.7742ZM70.2836 57.0622C70.7636 57.0622 71.1903 56.9555 71.5636 56.7422C71.9476 56.5288 72.2516 56.2195 72.4756 55.8142C72.7103 55.4088 72.8276 54.9342 72.8276 54.3902C72.8276 53.8355 72.7103 53.3608 72.4756 52.9662C72.2516 52.5608 71.9476 52.2515 71.5636 52.0382C71.1903 51.8248 70.7636 51.7182 70.2836 51.7182C69.8036 51.7182 69.3716 51.8248 68.9876 52.0382C68.6143 52.2515 68.3103 52.5608 68.0756 52.9662C67.8516 53.3608 67.7396 53.8355 67.7396 54.3902C67.7396 54.9342 67.8516 55.4088 68.0756 55.8142C68.3103 56.2195 68.6143 56.5288 68.9876 56.7422C69.3716 56.9555 69.8036 57.0622 70.2836 57.0622ZM72.8756 58.6622V56.6462L72.9556 54.3742L72.7956 52.1022V46.7902H74.7796V58.6622H72.8756ZM81.076 58.6622V56.9342L80.964 56.5662V53.5422C80.964 52.9555 80.788 52.5022 80.436 52.1822C80.084 51.8515 79.5507 51.6862 78.836 51.6862C78.356 51.6862 77.8813 51.7608 77.412 51.9102C76.9533 52.0595 76.564 52.2675 76.244 52.5342L75.46 51.0782C75.9187 50.7262 76.4627 50.4648 77.092 50.2942C77.732 50.1128 78.3933 50.0222 79.076 50.0222C80.3133 50.0222 81.268 50.3208 81.94 50.9182C82.6227 51.5048 82.964 52.4168 82.964 53.6542V58.6622H81.076ZM78.388 58.7742C77.748 58.7742 77.188 58.6675 76.708 58.4542C76.228 58.2302 75.8547 57.9262 75.588 57.5422C75.332 57.1475 75.204 56.7048 75.204 56.2142C75.204 55.7342 75.316 55.3022 75.54 54.9182C75.7747 54.5342 76.1533 54.2302 76.676 54.0062C77.1987 53.7822 77.892 53.6702 78.756 53.6702H81.236V54.9982H78.9C78.2173 54.9982 77.7587 55.1102 77.524 55.3342C77.2893 55.5475 77.172 55.8142 77.172 56.1342C77.172 56.4968 77.316 56.7848 77.604 56.9982C77.892 57.2115 78.292 57.3182 78.804 57.3182C79.2947 57.3182 79.732 57.2062 80.116 56.9822C80.5107 56.7582 80.7933 56.4275 80.964 55.9902L81.3 57.1902C81.108 57.6915 80.7613 58.0808 80.26 58.3582C79.7693 58.6355 79.1453 58.7742 78.388 58.7742ZM84.4785 61.8782C84.0625 61.8782 83.6465 61.8088 83.2305 61.6702C82.8145 61.5315 82.4678 61.3395 82.1905 61.0942L82.9905 59.6222C83.1932 59.8035 83.4225 59.9475 83.6785 60.0542C83.9345 60.1608 84.1958 60.2142 84.4625 60.2142C84.8252 60.2142 85.1185 60.1235 85.3425 59.9422C85.5665 59.7608 85.7745 59.4568 85.9665 59.0302L86.4625 57.9102L86.6225 57.6702L89.8545 50.1182H91.7745L87.7745 59.3502C87.5078 59.9902 87.2092 60.4968 86.8785 60.8702C86.5585 61.2435 86.1958 61.5048 85.7905 61.6542C85.3958 61.8035 84.9585 61.8782 84.4785 61.8782ZM86.2385 58.9662L82.3825 50.1182H84.4625L87.5985 57.4942L86.2385 58.9662ZM102.31 47.4622H104.39V58.6622H102.31V47.4622ZM96.5184 58.6622H94.4384V47.4622H96.5184V58.6622ZM102.47 53.8622H96.3424V52.0862H102.47V53.8622ZM109.439 58.7742C108.565 58.7742 107.786 58.5875 107.103 58.2142C106.421 57.8302 105.882 57.3075 105.487 56.6462C105.093 55.9848 104.895 55.2328 104.895 54.3902C104.895 53.5368 105.093 52.7848 105.487 52.1342C105.882 51.4728 106.421 50.9555 107.103 50.5822C107.786 50.2088 108.565 50.0222 109.439 50.0222C110.325 50.0222 111.109 50.2088 111.791 50.5822C112.485 50.9555 113.023 51.4675 113.407 52.1182C113.802 52.7688 113.999 53.5262 113.999 54.3902C113.999 55.2328 113.802 55.9848 113.407 56.6462C113.023 57.3075 112.485 57.8302 111.791 58.2142C111.109 58.5875 110.325 58.7742 109.439 58.7742ZM109.439 57.0622C109.93 57.0622 110.367 56.9555 110.751 56.7422C111.135 56.5288 111.434 56.2195 111.647 55.8142C111.871 55.4088 111.983 54.9342 111.983 54.3902C111.983 53.8355 111.871 53.3608 111.647 52.9662C111.434 52.5608 111.135 52.2515 110.751 52.0382C110.367 51.8248 109.935 51.7182 109.455 51.7182C108.965 51.7182 108.527 51.8248 108.143 52.0382C107.77 52.2515 107.471 52.5608 107.247 52.9662C107.023 53.3608 106.911 53.8355 106.911 54.3902C106.911 54.9342 107.023 55.4088 107.247 55.8142C107.471 56.2195 107.77 56.5288 108.143 56.7422C108.527 56.9555 108.959 57.0622 109.439 57.0622ZM125.096 50.0222C125.779 50.0222 126.381 50.1555 126.904 50.4222C127.437 50.6888 127.853 51.0995 128.152 51.6542C128.451 52.1982 128.6 52.9022 128.6 53.7662V58.6622H126.6V54.0222C126.6 53.2648 126.435 52.6995 126.104 52.3262C125.773 51.9528 125.299 51.7662 124.68 51.7662C124.243 51.7662 123.853 51.8622 123.512 52.0542C123.181 52.2462 122.92 52.5288 122.728 52.9022C122.547 53.2755 122.456 53.7502 122.456 54.3262V58.6622H120.456V54.0222C120.456 53.2648 120.291 52.6995 119.96 52.3262C119.629 51.9528 119.155 51.7662 118.536 51.7662C118.099 51.7662 117.709 51.8622 117.368 52.0542C117.037 52.2462 116.776 52.5288 116.584 52.9022C116.403 53.2755 116.312 53.7502 116.312 54.3262V58.6622H114.312V50.1182H116.216V52.3902L115.88 51.7182C116.168 51.1635 116.584 50.7422 117.128 50.4542C117.683 50.1662 118.312 50.0222 119.016 50.0222C119.816 50.0222 120.509 50.2195 121.096 50.6142C121.693 51.0088 122.088 51.6062 122.28 52.4062L121.496 52.1342C121.773 51.4942 122.232 50.9822 122.872 50.5982C123.512 50.2142 124.253 50.0222 125.096 50.0222ZM133.587 58.7742C132.638 58.7742 131.806 58.5875 131.091 58.2142C130.387 57.8302 129.838 57.3075 129.443 56.6462C129.059 55.9848 128.867 55.2328 128.867 54.3902C128.867 53.5368 129.054 52.7848 129.427 52.1342C129.811 51.4728 130.334 50.9555 130.995 50.5822C131.667 50.2088 132.43 50.0222 133.283 50.0222C134.115 50.0222 134.857 50.2035 135.507 50.5662C136.158 50.9288 136.67 51.4408 137.043 52.1022C137.417 52.7635 137.603 53.5422 137.603 54.4382C137.603 54.5235 137.598 54.6195 137.587 54.7262C137.587 54.8328 137.582 54.9342 137.571 55.0302H130.451V53.7022H136.515L135.731 54.1182C135.742 53.6275 135.641 53.1955 135.427 52.8222C135.214 52.4488 134.921 52.1555 134.547 51.9422C134.185 51.7288 133.763 51.6222 133.283 51.6222C132.793 51.6222 132.361 51.7288 131.987 51.9422C131.625 52.1555 131.337 52.4542 131.123 52.8382C130.921 53.2115 130.819 53.6542 130.819 54.1662V54.4862C130.819 54.9982 130.937 55.4515 131.171 55.8462C131.406 56.2408 131.737 56.5448 132.163 56.7582C132.59 56.9715 133.081 57.0782 133.635 57.0782C134.115 57.0782 134.547 57.0035 134.931 56.8542C135.315 56.7048 135.657 56.4702 135.955 56.1502L137.027 57.3822C136.643 57.8302 136.158 58.1768 135.571 58.4222C134.995 58.6568 134.334 58.7742 133.587 58.7742ZM140.565 58.7742C139.85 58.7742 139.162 58.6835 138.501 58.5022C137.85 58.3102 137.333 58.0808 136.949 57.8142L137.717 56.2942C138.101 56.5395 138.559 56.7422 139.093 56.9022C139.626 57.0622 140.159 57.1422 140.693 57.1422C141.322 57.1422 141.775 57.0568 142.053 56.8862C142.341 56.7155 142.485 56.4862 142.485 56.1982C142.485 55.9635 142.389 55.7875 142.197 55.6702C142.005 55.5422 141.754 55.4462 141.445 55.3822C141.135 55.3182 140.789 55.2595 140.405 55.2062C140.031 55.1528 139.653 55.0835 139.269 54.9982C138.895 54.9022 138.554 54.7688 138.245 54.5982C137.935 54.4168 137.685 54.1768 137.493 53.8782C137.301 53.5795 137.205 53.1848 137.205 52.6942C137.205 52.1502 137.359 51.6808 137.669 51.2862C137.978 50.8808 138.41 50.5715 138.965 50.3582C139.53 50.1342 140.197 50.0222 140.965 50.0222C141.541 50.0222 142.122 50.0862 142.709 50.2142C143.295 50.3422 143.781 50.5235 144.165 50.7582L143.397 52.2782C142.991 52.0328 142.581 51.8675 142.165 51.7822C141.759 51.6862 141.354 51.6382 140.949 51.6382C140.341 51.6382 139.887 51.7288 139.589 51.9102C139.301 52.0915 139.157 52.3208 139.157 52.5982C139.157 52.8542 139.253 53.0462 139.445 53.1742C139.637 53.3022 139.887 53.4035 140.197 53.4782C140.506 53.5528 140.847 53.6168 141.221 53.6702C141.605 53.7128 141.983 53.7822 142.357 53.8782C142.73 53.9742 143.071 54.1075 143.381 54.2782C143.701 54.4382 143.957 54.6675 144.149 54.9662C144.341 55.2648 144.437 55.6542 144.437 56.1342C144.437 56.6675 144.277 57.1315 143.957 57.5262C143.647 57.9208 143.205 58.2302 142.629 58.4542C142.053 58.6675 141.365 58.7742 140.565 58.7742Z" fill="#333C4F"/>
</g>
<defs>
<filter id="filter0_d_1_3" x="25.884" y="19.6387" width="133.191" height="26.928" filterUnits="userSpaceOnUse" color-interpolation-filters="sRGB">
<feFlood flood-opacity="0" result="BackgroundImageFix"/>
<feColorMatrix in="SourceAlpha" type="matrix" values="0 0 0 0 0 0 0 0 0 0 0 0 0 0 0 0 0 0 127 0" result="hardAlpha"/>
<feOffset dy="4"/>
<feGaussianBlur stdDeviation="2"/>
<feComposite in2="hardAlpha" operator="out"/>
<feColorMatrix type="matrix" values="0 0 0 0 0 0 0 0 0 0 0 0 0 0 0 0 0 0 0.25 0"/>
<feBlend mode="normal" in2="BackgroundImageFix" result="effect1_dropShadow_1_3"/>
<feBlend mode="normal" in="SourceGraphic" in2="effect1_dropShadow_1_3" result="shape"/>
</filter>
<clipPath id="clip0_1_3">
<rect width="184" height="77" fill="white"/>
</clipPath>
</defs>
</svg>
